<?xml version="1.0" encoding="utf-8"?>
<!-- Generator: Adobe Illustrator 18.1.0, SVG Export Plug-In . SVG Version: 6.00 Build 0)  -->
<!DOCTYPE svg PUBLIC "-//W3C//DTD SVG 1.1//EN" "http://www.w3.org/Graphics/SVG/1.1/DTD/svg11.dtd">
<svg version="1.1" id="Ebene_1" xmlns="http://www.w3.org/2000/svg" xmlns:xlink="http://www.w3.org/1999/xlink" x="0px" y="0px"
	 viewBox="0 0 382 32" enable-background="new 0 0 382 32" xml:space="preserve">
<path fill="#FF7100" d="M382,14.8c0-5.2-3.4-7.4-8-7.4c-7.7,0-10.4,6.1-10.4,10c0,4.3,3.1,7.8,8.9,7.8c1.7,0,4-0.3,6.1-0.9l0.8-4.1
	c-1.7,0.8-3.8,1.2-5.4,1.2c-3.7,0-4.6-1.4-4.7-3.3h12.3C381.8,16.9,382,15.4,382,14.8z M369.7,14.6c0.4-1.6,1.8-3.4,4.4-3.4
	c2.2,0,2.9,1.5,2.9,3.4H369.7z M359.1,0.3L357,10.5c-1-1.8-3.1-3.1-6.1-3.1c-5.9,0-8.8,5.2-8.8,10.8c0,3.8,2.7,7,6.5,7
	c3.3,0,4.8-1.2,6.3-3.1l-0.4,2.7h5.5c0.1-0.7,0.2-1.5,0.4-2.5L365,0.3H359.1z M351.2,20.6c-1.9,0-2.9-1.4-2.9-3.5
	c0-2.6,1.7-5.3,4.5-5.3c2,0,2.9,1.8,2.9,3.5C355.7,17.6,354,20.6,351.2,20.6z M332.2,24.7h5.6l1.1-5.3h-5.6L332.2,24.7z M335.6,13
	l1.4-5.2c-0.8-0.3-1.7-0.4-2.5-0.4c-2.5,0-4.4,1.9-5.4,3.9l0.6-3.5h-5.6c-0.2,1.5-0.4,3-0.7,4.4l-2.7,12.6h6l1.7-7.8
	c0.4-2.5,1.9-4.7,4.5-4.7C334,12.2,334.9,12.4,335.6,13z M312.3,7.3c-7.7,0-10.4,6.1-10.4,10c0,4.3,3.1,7.8,8.9,7.8
	c1.7,0,4-0.3,6.1-0.9l0.8-4.1c-1.7,0.8-3.8,1.2-5.4,1.2c-3.7,0-4.6-1.4-4.7-3.3h12.3c0.2-1,0.4-2.5,0.4-3.2
	C320.3,9.6,316.8,7.3,312.3,7.3z M307.9,14.6c0.4-1.6,1.8-3.4,4.4-3.4c2.2,0,2.9,1.5,2.9,3.4H307.9z M296.5,7.7l-0.8,3.1
	c-1.1-2.4-3.4-3.5-6.1-3.5c-5.6,0-9.3,4.4-9.3,9.7c0,4.5,2.3,7.7,7.1,7.7c2.4,0,4.3-1.1,5.7-3c-0.9,4.4-2.4,6-6.6,5.9
	c-1.9,0-3.5-0.5-5-1.3l-1.2,4.6c1.8,0.6,3.8,1.1,6.8,1.1c7.2,0,9.6-2,11.1-8.6l2.7-11.6c0.4-1.8,0.9-3.2,1.1-4.1H296.5z M289.7,20.2
	c-1.9,0-3.1-1.4-3.1-3.1c0-2.4,1.3-5.3,4.3-5.3c2.1,0,3.2,1.3,3.2,3.1C294.1,17.1,292.7,20.2,289.7,20.2z M274.9,0.6L274,5h6.1
	l0.9-4.3H274.9z M269.8,24.7h6.1l3.6-17h-6.1L269.8,24.7z M264.6,0.3l-5.2,24.5h6.1l5.2-24.5H264.6z M254.2,0.3L249,24.7h6.1
	l5.2-24.5H254.2z M243.7,0.6L242.7,5h6.1l0.9-4.3H243.7z M238.6,24.7h6.1l3.6-17h-6.1L238.6,24.7z M230.8,7.3
	c-2.3,0-4.1,0.9-5.6,2.4l2.1-9.5h-5.9l-4.6,20.3c-0.4,1.7-0.8,3.2-1.2,4.2h5.6l0.9-3.2c1.1,2.4,3.1,3.6,6.1,3.6
	c6.3,0,9.1-5.2,9.1-10.8C237.3,10.5,235.1,7.3,230.8,7.3z M226.6,20.6c-2,0-2.9-1.7-2.9-3.5c0-2.3,1.7-5.3,4.5-5.3
	c1.9,0,2.9,1.4,2.9,3.5C231.1,18,229.4,20.6,226.6,20.6z M210.1,11.3c1.8,0,3.3,0.3,4.8,0.9l1.3-3.9c-2.2-0.7-4.3-1-5.8-1
	c-4,0-8.7,1.6-8.7,5.6c0,5.6,7.1,4.4,7.1,6.8c0,1.4-2.4,1.5-3.4,1.5c-1.7,0-3.3-0.3-4.9-1l-1.2,4c1.9,0.5,4.7,0.9,7.3,0.9
	c4.5-0.1,8.1-2.2,8.1-6.4c0-4.3-7.5-4.1-7.5-6C207.3,11.6,208.8,11.3,210.1,11.3z M201,7.7h-6.8l-5.8,7.2l3.1-14.6h-6.1l-5.4,24.5
	h6.1l1.8-8.4l3.6,8.4h6.7l-4.5-8.8L201,7.7z M170.6,7.3c-6.8,0-11.2,4.1-11.2,10c0,4.3,2.6,7.8,9,7.8c6.5,0,11.2-3.1,11.2-10.2
	C179.6,10.7,176.5,7.3,170.6,7.3z M168.8,21c-2,0-3.3-1.5-3.3-3.8c0-2.7,1.8-5.8,4.7-5.8c2.3,0,3.1,1.7,3.1,3.4
	C173.4,18.7,171.6,21,168.8,21z M149.1,7.3c-6.8,0-11.2,4.1-11.2,10c0,4.3,2.6,7.8,9,7.8c6.5,0,11.2-3.1,11.2-10.2
	C158.1,10.7,154.9,7.3,149.1,7.3z M147.3,21c-2,0-3.3-1.5-3.3-3.8c0-2.7,1.8-5.8,4.7-5.8c2.3,0,3.1,1.7,3.1,3.4
	C151.9,18.7,150.1,21,147.3,21z M129.9,7.3c-2.3,0-4.1,0.9-5.6,2.4l2.1-9.5h-5.9L116,20.5c-0.4,1.7-0.8,3.2-1.2,4.2h5.6l0.9-3.2
	c1.1,2.4,3.1,3.6,6.1,3.6c6.3,0,9.1-5.2,9.1-10.8C136.4,10.5,134.2,7.3,129.9,7.3z M125.7,20.6c-2,0-2.9-1.7-2.9-3.5
	c0-2.3,1.7-5.3,4.5-5.3c1.9,0,2.9,1.4,2.9,3.5C130.2,18,128.5,20.6,125.7,20.6z M115,14.8c0-5.2-3.4-7.4-8-7.4
	c-7.7,0-10.4,6.1-10.4,10c0,4.3,3.1,7.8,8.9,7.8c1.7,0,4-0.3,6.1-0.9l0.8-4.1c-1.7,0.8-3.8,1.2-5.4,1.2c-3.7,0-4.6-1.4-4.7-3.3h12.3
	C114.8,16.9,115,15.4,115,14.8z M102.7,14.6c0.4-1.6,1.8-3.4,4.4-3.4c2.2,0,2.9,1.5,2.9,3.4H102.7z M90.8,19.5
	c0-0.8,0.2-1.7,0.5-2.9l1-4.7h4.4l0.7-4.1h-4.1l1.2-5.3l-6.3,1.7l-0.8,3.7h-3.4l-0.7,4.1h3.2l-1,4.8c-0.4,1.8-0.5,2.6-0.5,3.5
	c0,3.6,2.4,5,5.5,5c1.2,0,2.5-0.1,3.7-0.3l0.7-3.9c-0.6,0.2-1.3,0.5-1.9,0.5C91.6,21.4,90.8,20.7,90.8,19.5z M72.2,7.3
	c-6.8,0-11.2,4.1-11.2,10c0,4.3,2.6,7.8,9,7.8c6.5,0,11.2-3.1,11.2-10.2C81.2,10.7,78.1,7.3,72.2,7.3z M70.5,21
	c-2,0-3.3-1.5-3.3-3.8c0-2.7,1.8-5.8,4.7-5.8c2.3,0,3.1,1.7,3.1,3.4C75.1,18.7,73.3,21,70.5,21z M54,7.3c-3.2,0-5,1.3-6.7,3.2
	l0.4-2.8h-5.6c-0.2,1.5-0.4,3-0.7,4.4l-2.7,12.6h6l1.7-7.8c0.4-2.5,1.9-4.7,4.5-4.7c1.7-0.1,2.3,0.9,2.3,2c0,0.9-0.2,1.7-0.4,2.6
	l-1.7,8h6.2l1.6-7.9c0.4-1.8,0.5-2.4,0.5-3.6C59.3,9.9,57.5,7.3,54,7.3z M26.2,0H4.7C2.1,0,0,2.1,0,4.6v5h11.5V3.2l16.2,9.2
	l-16.2,9.2v-6.3H0v5c0,2.5,2.1,4.6,4.7,4.6h21.5c2.6,0,4.7-2.1,4.7-4.6V4.6C30.9,2.1,28.8,0,26.2,0z"/>
</svg>
